<svg xmlns="http://www.w3.org/2000/svg" width="118" height="118" viewBox="0 0 118 118">
  <defs>
    <style>
      .cls-1 {
        fill: #fee900;
      }

      .cls-2 {
        fill: #fec007;
      }

      .cls-3 {
        fill: #fe9700;
      }

      .cls-4 {
        fill: #fe5722;
      }
    </style>
  </defs>
  <title>Asset 11</title>
  <g id="Layer_2" data-name="Layer 2">
    <g id="Btn_Thrust">
      <g>
        <rect width="118" height="118"/>
        <g>
          <g>
            <path class="cls-1" d="M80.18725,22.43253l.02089.01857Z"/>
            <path class="cls-1" d="M43.42645,76.624c.07908.39927.15422.61737,0,0Z"/>
            <path class="cls-1" d="M80.16314,22.41209l.02411.02044Z"/>
            <path class="cls-1" d="M80.20814,22.4511c.03586.03229.071.065.10467.09865C80.27426,22.51134,80.24016,22.47965,80.20814,22.4511Z"/>
            <path class="cls-1" d="M70.11867,19.78577a.12883.12883,0,0,0-.05807-.051.85291.85291,0,0,1-.26937-.18937C70.13639,19.90508,70.21112,19.94086,70.11867,19.78577Z"/>
            <path class="cls-1" d="M83.29183,37.29685a.12453.12453,0,0,1-.01065-.0898c.88823-3.39311.839-9.40911-.0075-11.69472-1.1063-2.987-.55807-1.598-3.11054-3.10024-2.22686-1.3106-3.57744-1.42551-4.70178-2.54707-.66639-.66474.25078-1.89858-.27156-2.42694-.73118-.73961-1.85093.24253-2.53279-.44679-.68359-.69106.20889-1.77891-.4916-2.52875-2.17483-2.32805-2.36806,3.27051-2.37071-2.55949a.12619.12619,0,0,0-.12711-.12611c-.60881.01014-20.84154.00216-21.30468-.00068a.12609.12609,0,0,0-.126.1243c-.07214,3.72593-3.39045,3.51382-5.394,5.53744-.52232.52756.39481,1.76261-.27144,2.427-.513.51157-1.74969-.35018-2.42306.313-.4963.48879.339,1.723-.31712,2.38419-.5084.51237-1.73472-.40084-2.37639.24653-.49876.5032.33826,1.78249-.2542,2.44456-.4523.50544-2.11885-.65109-2.44219.29538-1.0738,3.14312-.81925,12.344.00048,15.58239.21649.85526,2.23-.16552,2.34712.27884.2777,1.0535-.01494,2.96188.35317,4.0631.37709,1.12814,2.13756,3.66163,2.69837,6.05311.91625,3.90715-1.04575,8.57064-.00625,12.44222.76073,2.83333,1.92386.6674,2.703,3.79892.51874,2.08477-.57959,4.604-.00946,6.67466A22.26678,22.26678,0,0,0,44.23,76.4473c.29228.48287,2.29983,2.18071,2.61232,2.69088.843,1.37629.81,2.79122,1.54614,5.23594.25362.84223,2.08222-.52883,2.37294.32551.5876,1.72673-.32573,3.9309.16765,5.72014.97034,3.51888,6.72686,4.979,7.5227,9.79258s1.68061.267,2.58651-.39884c.55115-.4051.58913-.85218.67266-1.9366.15885-2.06215.60737.16321,2.37076-2.56123.55723-.86091-.17147-1.817.49164-2.5287.63134-.67763,2.18623.478,2.53414-.5195.51-1.46242.1852-3.58151.12924-5.46667a.12671.12671,0,0,1,.12635-.12753c1.48047.23557,2.5302-7.4982,3.83279-7.53928.00821-.00026.00687-.01407.01172-.02069.38735-.52884,3.51843-3.35049,3.547-3.41251,1.38182-2.99392-.14187-5.41938.4243-7.96992.51955-2.34055,2.14822-1.47532,2.309-2.056,1.36765-4.93919-.58513-11.1999.73605-16.18253.24816-.93584,1.82922.79559,2.353-2.21715.3179-1.82849-.06915-4.05332.31179-5.71208.01781-.07755,1.7401.26,2.24827-.26924Q84.69056,39.93614,83.29183,37.29685Z"/>
            <path class="cls-1" d="M45.6584,23.47051a.1241.1241,0,0,0-.01275.02662,1.49445,1.49445,0,0,1-.09929.2325C45.78242,23.29306,45.78486,23.27248,45.6584,23.47051Z"/>
          </g>
          <path class="cls-2" d="M76.96392,33.27083c-3.18291-.48234-2.08352-3.676-1.82794-6.91933A1.06157,1.06157,0,0,0,74.18956,25.21c-3.12461-.31492-.8279-2.28025-2.11628-5.35809-.017-.0405-3.87247-2.93018-3.9207-3.03171a16.20607,16.20607,0,0,1-.92839-2.89542q.94355-2.85408-1.6341-2.18388l-2.65051.06971c-2.08428-.445-4.682-.03471-6.83627-.03471-6.37361,0-3.581.41467-5.16369,4.98676.4664-1.34736-3.64633,3.8634-3.01493,3.10042-1.00015,1.20858-1.343-.29588-2.38407,1.57339a8.21487,8.21487,0,0,0-.25758,2.782,1.05879,1.05879,0,0,1-1.05845,1.03632l-.31671,0a1.05843,1.05843,0,0,0-1.05855,1.05793l-.00122,2.57388a1.04641,1.04641,0,0,1-.0577.34364c-1.28914,3.69941,1.3204,4.062-1.47029,4.09888a1.06043,1.06043,0,0,0-1.00934,1.33305c.53067,2.01313,2.29308,1.84913,2.51512,5.87426a1.04973,1.04973,0,0,0,.8004.96536c3.71831.87943,2.22645,8.32786,1.95591,12.38536a1.07128,1.07128,0,0,0,.76174,1.10774c3.87534,1.10041,2.23318,10.50883,1.93655,14.98552a1.05742,1.05742,0,0,0,.94291,1.12168c2.493.264,1.91235,1.6787,1.74564,4.27156a1.05643,1.05643,0,0,0,.94316,1.117c2.50429.263,1.91612,1.68249,1.75051,4.28647a1.05905,1.05905,0,0,0,.92665,1.11263c2.96561.38971.13917,2.72293,4.427,2.63787,4.19439-.08321,1.29984-2.28541,4.41138-2.64366a1.06258,1.06258,0,0,0,.94134-1.12368c-.164-2.56541-.72307-4.00032,1.75456-4.26838a1.05923,1.05923,0,0,0,.93985-1.12345c-.16459-2.56975-.72468-4.00447,1.77222-4.26757a1.05617,1.05617,0,0,0,.94184-1.08424c-.14082-4.56575.371-14.19852,2.71166-16.18585.9567-.81228,0-2.51,0-3.76506,0-.03214.00174-.064.00485-.096.1916-1.9663-.59689-4.58489-.00473-6.44781a6.504,6.504,0,0,1,1.58528-2.10559c.55353-1.74061.31406-4.79149,2.95546-5.3132a1.05732,1.05732,0,0,0,.84254-1.04165v-.74308A1.06231,1.06231,0,0,0,76.96392,33.27083Z"/>
          <path class="cls-3" d="M58.09677,12.14061a4.60878,4.60878,0,0,1,5.36408,2.1224c2.29926,3.99387,2.54685,2.97486,3.27259,5.59093.41684,1.03685-.19133,2.90481.36372,3.81984,1.89024,3.11621,2.70253.97446,2.69919,7.14143-.00263,4.85995,1.01212,11.51507-.37166,15.99557-.11723.37957-2.08583-.51386-2.33349.44883-.69136,2.68737.40156,6.29827.00682,9.02975A15.21714,15.21714,0,0,1,65.72494,60.279a18.19332,18.19332,0,0,0-1.31807,3.98923c-.00512,1.65777-2.07107,4.21951-2.70146,4.48348-1.758.73617,1.16166,12.2518-5.16854,7.47379-.91851-.69328.025-6.723-.20693-7.401-.32158-.94-2.45146-2.54048-2.53717-3.62687a4.675,4.675,0,0,1,.22564-1.83,2.49859,2.49859,0,0,0-.49276-2.76358c-.069-.068-.30489-.30888-.36249-.3444a4.46613,4.46613,0,0,1-1.79427-2.30421c-.176-.48282-.33628-.95506-.43449-1.32021-.78357-2.91337.78876-6.46683.00709-9.37565-.29681-1.10453-2.24821.25356-2.50349-.65415-.48625-1.729-.201-4.47647-.19994-6.28708.00253-4.185-1.29775-11.04919.06146-15.00587.18232-.53073,2.23536.454,2.46118-.23894.4261-1.30745-.363-3.47825.16551-4.80409.16462-.413,3.58905-2.44229,4.00067-3.10316C56.5978,14.48352,55.93513,12.826,58.09677,12.14061Z"/>
          <path class="cls-4" d="M64.40553,46.81343q-.00591,2.49413.00554,4.98823-.77772,1.09515-2.31458.38687c-.2125.61814-.033,7.72188-.44882,8.02853-6.07219,4.47839-5.24242-6.03284-5.77109-8.02973l-.02207.00255A2.09857,2.09857,0,0,1,53.52493,50.107a12.68628,12.68628,0,0,1,.10275-1.59327c-.57425-2.21524.57136-4.8172-.0498-7.046a14.89155,14.89155,0,0,0-2.30325-.04784,5.92141,5.92141,0,0,1-.34181-3.69891,38.50056,38.50056,0,0,1,.51907-4.03464,5.48055,5.48055,0,0,1,1.92234-3.14313,1.2337,1.2337,0,0,0,.25942-.31373q-.00476-3.60463-.01417-7.20925c1.31861-2.57805.95448-1.48565,2.69773-2.78231a10.18238,10.18238,0,0,1,5.02274-.3836c1.609.87917,3.83319,4.84976,2.6,2.69214,1.33179,2.33014-.19489,5.4104.52791,8.02923.12711.46054,2.39938-.59593,2.63656.38387C69.10815,39.23713,64.40572,40.35242,64.40553,46.81343Z"/>
        </g>
      </g>
    </g>
  </g>
</svg>
