<svg xmlns="http://www.w3.org/2000/svg" xmlns:xlink="http://www.w3.org/1999/xlink" viewBox="0 0 42 101"><defs><style>.cls-1{isolation:isolate;}.cls-2{fill:url(#radial-gradient);}.cls-14,.cls-17,.cls-3,.cls-7{mix-blend-mode:color-dodge;}.cls-3{fill:url(#radial-gradient-2);}.cls-4{fill:url(#linear-gradient);}.cls-5{fill:url(#linear-gradient-2);}.cls-6{fill:url(#radial-gradient-3);}.cls-7{fill:url(#radial-gradient-4);}.cls-8{fill:url(#linear-gradient-3);}.cls-9{fill:url(#linear-gradient-4);}.cls-10{fill:url(#linear-gradient-5);}.cls-11{fill:url(#radial-gradient-5);}.cls-12{fill:url(#radial-gradient-6);}.cls-13{fill:url(#radial-gradient-7);}.cls-14{fill:url(#radial-gradient-8);}.cls-15{fill:url(#linear-gradient-6);}.cls-16{fill:url(#radial-gradient-9);}.cls-17{fill:url(#radial-gradient-10);}.cls-18{fill:url(#linear-gradient-7);}.cls-19{mix-blend-mode:hard-light;}.cls-20{fill:#b0e4ff;}</style><radialGradient id="radial-gradient" cx="12.84" cy="91.49" r="4.69" gradientTransform="translate(-0.72 -202.54) scale(1.59 3.21)" gradientUnits="userSpaceOnUse"><stop offset="0" stop-color="#d60000"/><stop offset="0.21" stop-color="#b60917"/><stop offset="0.49" stop-color="#901332"/><stop offset="0.63" stop-color="#82173c"/><stop offset="1" stop-color="#d60000"/></radialGradient><radialGradient id="radial-gradient-2" cx="13.63" cy="92.15" r="2.1" gradientTransform="translate(-0.72 -529.3) scale(1.59 6.74)" gradientUnits="userSpaceOnUse"><stop offset="0.32" stop-color="#d60000" stop-opacity="0"/><stop offset="0.38" stop-color="#d60201" stop-opacity="0.02"/><stop offset="0.44" stop-color="#d60a03" stop-opacity="0.09"/><stop offset="0.52" stop-color="#d61507" stop-opacity="0.2"/><stop offset="0.59" stop-color="#d5260d" stop-opacity="0.36"/><stop offset="0.67" stop-color="#d53b14" stop-opacity="0.56"/><stop offset="0.75" stop-color="#d4551d" stop-opacity="0.8"/><stop offset="0.81" stop-color="#d46a24"/><stop offset="0.84" stop-color="#d46823" stop-opacity="0.98"/><stop offset="0.86" stop-color="#d46322" stop-opacity="0.93"/><stop offset="0.89" stop-color="#d45a1f" stop-opacity="0.85"/><stop offset="0.91" stop-color="#d54d1a" stop-opacity="0.73"/><stop offset="0.94" stop-color="#d53d15" stop-opacity="0.58"/><stop offset="0.96" stop-color="#d5290e" stop-opacity="0.39"/><stop offset="0.98" stop-color="#d61206" stop-opacity="0.17"/><stop offset="1" stop-color="#d60000" stop-opacity="0"/></radialGradient><linearGradient id="linear-gradient" x1="13.7" y1="85.28" x2="13.66" y2="100.57" gradientTransform="translate(-0.72) scale(1.59 1)" gradientUnits="userSpaceOnUse"><stop offset="0.32" stop-color="#d60000" stop-opacity="0"/><stop offset="0.42" stop-color="#d30102" stop-opacity="0.04"/><stop offset="0.55" stop-color="#ca0309" stop-opacity="0.15"/><stop offset="0.68" stop-color="#ba0814" stop-opacity="0.33"/><stop offset="0.82" stop-color="#a50d23" stop-opacity="0.58"/><stop offset="0.96" stop-color="#8a1536" stop-opacity="0.9"/><stop offset="1" stop-color="#82173c"/></linearGradient><linearGradient id="linear-gradient-2" x1="20.96" y1="86.75" x2="21.04" y2="77.33" gradientUnits="userSpaceOnUse"><stop offset="0" stop-color="#82173c"/><stop offset="0.19" stop-color="#d60000"/><stop offset="0.51" stop-color="#d60000"/><stop offset="1" stop-color="#82173c"/></linearGradient><radialGradient id="radial-gradient-3" cx="17.81" cy="41.58" r="20.15" gradientTransform="translate(0 -92.05) scale(1 3.21)" xlink:href="#radial-gradient"/><radialGradient id="radial-gradient-4" cx="21.13" cy="44.42" r="9.01" gradientTransform="translate(0 -255.12) scale(1 6.74)" gradientUnits="userSpaceOnUse"><stop offset="0.32" stop-color="#d60000" stop-opacity="0"/><stop offset="0.38" stop-color="#d60201" stop-opacity="0.02"/><stop offset="0.44" stop-color="#d60a03" stop-opacity="0.09"/><stop offset="0.51" stop-color="#d61507" stop-opacity="0.2"/><stop offset="0.59" stop-color="#d5260d" stop-opacity="0.36"/><stop offset="0.67" stop-color="#d53b14" stop-opacity="0.56"/><stop offset="0.75" stop-color="#d4551d" stop-opacity="0.8"/><stop offset="0.81" stop-color="#d46a24"/><stop offset="0.84" stop-color="#d46823" stop-opacity="0.98"/><stop offset="0.86" stop-color="#d46322" stop-opacity="0.93"/><stop offset="0.89" stop-color="#d45a1f" stop-opacity="0.85"/><stop offset="0.91" stop-color="#d54d1a" stop-opacity="0.73"/><stop offset="0.94" stop-color="#d53d15" stop-opacity="0.58"/><stop offset="0.96" stop-color="#d5290e" stop-opacity="0.39"/><stop offset="0.98" stop-color="#d61206" stop-opacity="0.17"/><stop offset="1" stop-color="#d60000" stop-opacity="0"/></radialGradient><linearGradient id="linear-gradient-3" x1="21.31" x2="21.31" y2="80.5" gradientUnits="userSpaceOnUse"><stop offset="0" stop-color="#d46a24"/><stop offset="0" stop-color="#d46723" stop-opacity="0.97"/><stop offset="0.03" stop-color="#d54f1b" stop-opacity="0.74"/><stop offset="0.07" stop-color="#d53a14" stop-opacity="0.54"/><stop offset="0.1" stop-color="#d5280e" stop-opacity="0.38"/><stop offset="0.13" stop-color="#d61909" stop-opacity="0.24"/><stop offset="0.17" stop-color="#d60e05" stop-opacity="0.13"/><stop offset="0.21" stop-color="#d60602" stop-opacity="0.06"/><stop offset="0.26" stop-color="#d60100" stop-opacity="0.01"/><stop offset="0.32" stop-color="#d60000" stop-opacity="0"/><stop offset="0.42" stop-color="#d30102" stop-opacity="0.04"/><stop offset="0.55" stop-color="#ca0309" stop-opacity="0.15"/><stop offset="0.68" stop-color="#ba0814" stop-opacity="0.33"/><stop offset="0.82" stop-color="#a50d23" stop-opacity="0.58"/><stop offset="0.96" stop-color="#8a1536" stop-opacity="0.9"/><stop offset="1" stop-color="#82173c"/></linearGradient><linearGradient id="linear-gradient-4" x1="22.62" y1="73.11" x2="1.87" y2="90.03" xlink:href="#linear-gradient-2"/><linearGradient id="linear-gradient-5" x1="53.6" y1="73.18" x2="33.01" y2="89.97" gradientTransform="matrix(-1, 0, 0, 1, 73.48, 0)" xlink:href="#linear-gradient-2"/><radialGradient id="radial-gradient-5" cx="25.84" cy="67.25" r="18.31" gradientUnits="userSpaceOnUse"><stop offset="0" stop-color="#d46a24"/><stop offset="0.19" stop-color="#d46623"/><stop offset="0.38" stop-color="#d4591e"/><stop offset="0.58" stop-color="#d54417"/><stop offset="0.79" stop-color="#d5270d"/><stop offset="0.99" stop-color="#d60201"/><stop offset="1" stop-color="#d60000"/></radialGradient><radialGradient id="radial-gradient-6" cx="13.06" r="18.35" gradientTransform="matrix(-1, 0, 0, 1, 29.77, 0)" xlink:href="#radial-gradient-5"/><radialGradient id="radial-gradient-7" cx="23.57" cy="91.49" r="4.69" xlink:href="#radial-gradient"/><radialGradient id="radial-gradient-8" cx="24.36" cy="92.15" r="2.1" xlink:href="#radial-gradient-2"/><linearGradient id="linear-gradient-6" x1="24.43" y1="85.28" x2="24.39" y2="100.57" xlink:href="#linear-gradient"/><radialGradient id="radial-gradient-9" cx="3.92" cy="91.49" r="4.69" gradientTransform="translate(-3.34 -202.54) scale(1.59 3.21)" xlink:href="#radial-gradient"/><radialGradient id="radial-gradient-10" cx="4.71" cy="92.15" r="2.1" gradientTransform="translate(-3.34 -529.3) scale(1.59 6.74)" xlink:href="#radial-gradient-2"/><linearGradient id="linear-gradient-7" x1="4.78" y1="85.28" x2="4.74" y2="100.57" gradientTransform="translate(-3.34) scale(1.59 1)" xlink:href="#linear-gradient"/></defs><title>ARocket</title><g class="cls-1"><g id="Layer_2" data-name="Layer 2"><path class="cls-2" d="M21,81.83S30,101,21,101,21,81.83,21,81.83Z"/><path class="cls-3" d="M21,81.83S30,101,21,101,21,81.83,21,81.83Z"/><path class="cls-4" d="M21,81.83S30,101,21,101,21,81.83,21,81.83Z"/><rect class="cls-5" x="20" y="77" width="2" height="9.67"/><path class="cls-6" d="M21,0s21,20.83,4.75,82.5H18C0,19.5,21,0,21,0Z"/><path class="cls-7" d="M21,0s21,20.83,4.75,82.5H18C0,19.5,21,0,21,0Z"/><path class="cls-8" d="M21,0s21,20.83,4.75,82.5H18C0,19.5,21,0,21,0Z"/><path class="cls-9" d="M18.83,82s-9.33-.19-11,13H2C2,77.94,12.14,72.43,18.06,67"/><path class="cls-10" d="M23.43,82s9.34-.19,11,13h5.84c0-17.06-9.85-22.57-15.77-28"/><path class="cls-11" d="M40.27,95c0-17.06-9.85-22.57-15.77-28h2s8.06,5.5,11.55,14.83C42.35,93.34,40.27,95,40.27,95Z"/><path class="cls-12" d="M2.29,95c0-17.06,9.85-22.57,15.77-28h-2S7.7,72.5,4.21,81.83C-.09,93.34,2.29,95,2.29,95Z"/><path class="cls-13" d="M38.05,81.83s9,19.17,0,19.17S38.05,81.83,38.05,81.83Z"/><path class="cls-14" d="M38.05,81.83s9,19.17,0,19.17S38.05,81.83,38.05,81.83Z"/><path class="cls-15" d="M38.05,81.83s9,19.17,0,19.17S38.05,81.83,38.05,81.83Z"/><path class="cls-16" d="M4.21,81.83s9,19.17,0,19.17S4.21,81.83,4.21,81.83Z"/><path class="cls-17" d="M4.21,81.83s9,19.17,0,19.17S4.21,81.83,4.21,81.83Z"/><path class="cls-18" d="M4.21,81.83s9,19.17,0,19.17S4.21,81.83,4.21,81.83Z"/><g class="cls-19"><path class="cls-20" d="M24.49,13.5H17.85c-.45,3.08-.84,6.76-1.11,11.11h9C25.4,20.28,25,16.6,24.49,13.5Z"/><path class="cls-20" d="M21.17,0l-.06.12.2.22C21.22.11,21.17,0,21.17,0Z"/><path class="cls-20" d="M18,67h7q.51-5.85.79-11.11H17.06Q17.41,61.16,18,67Z"/><path class="cls-20" d="M26.19,34.7h-9.8c0,3.4,0,7.1.15,11.1h9.64C26.27,41.8,26.27,38.11,26.19,34.7Z"/><path class="cls-20" d="M11.05,45.8c.24,3.17.6,6.53,1.12,10.09h4.89q-.36-5.34-.52-10.09Z"/><path class="cls-20" d="M25.79,55.89h5.14c.42-3.55.7-6.92.85-10.09h-5.6C26.11,49,26,52.34,25.79,55.89Z"/><path class="cls-20" d="M11.48,24.61a90.1,90.1,0,0,0-.74,10.09h5.65q.06-5.55.35-10.09Z"/><path class="cls-20" d="M31.79,34.7a93.71,93.71,0,0,0-1-10.09H25.72c.22,3,.39,6.39.47,10.09Z"/></g></g></g></svg>